<?xml version="1.0" encoding="UTF-8" standalone="no"?>
<!DOCTYPE svg PUBLIC "-//W3C//DTD SVG 1.1//EN"
 "http://www.w3.org/Graphics/SVG/1.1/DTD/svg11.dtd">
<!-- Generated by graphviz version 2.38.0 (20140413.2041)
 -->
<!-- Title: controllers_diagram Pages: 1 -->
<svg width="674pt" height="651pt"
 viewBox="0.00 0.00 674.05 651.14" xmlns="http://www.w3.org/2000/svg" xmlns:xlink="http://www.w3.org/1999/xlink">
<g id="graph0" class="graph" transform="scale(1 1) rotate(0) translate(291.564 395.5)">
<title>controllers_diagram</title>
<polygon fill="none" stroke="none" points="-291.564,255.642 -291.564,-395.5 382.49,-395.5 382.49,255.642 -291.564,255.642"/>
<!-- _diagram_info -->
<g id="node1" class="node"><title>_diagram_info</title>
<text text-anchor="start" x="-28.2117" y="-347.1" font-family="Times,serif" font-size="13.00">Controllers diagram</text>
<text text-anchor="start" x="-28.2117" y="-334.1" font-family="Times,serif" font-size="13.00">Date: Dec 07 2015 &#45; 20:30</text>
<text text-anchor="start" x="-28.2117" y="-321.1" font-family="Times,serif" font-size="13.00">Migration version: 20151119121839</text>
<text text-anchor="start" x="-28.2117" y="-308.1" font-family="Times,serif" font-size="13.00">Generated by RailRoady 1.4.1</text>
<text text-anchor="start" x="-28.2117" y="-295.1" font-family="Times,serif" font-size="13.00">http://railroady.prestonlee.com</text>
</g>
<!-- Api::V1::ApiController -->
<g id="node2" class="node"><title>Api::V1::ApiController</title>
<path fill="none" stroke="black" d="M-121.253,74.1104C-121.253,74.1104 82.2505,74.1104 82.2505,74.1104 88.2505,74.1104 94.2505,68.1104 94.2505,62.1104 94.2505,62.1104 94.2505,-31.8896 94.2505,-31.8896 94.2505,-37.8896 88.2505,-43.8896 82.2505,-43.8896 82.2505,-43.8896 -121.253,-43.8896 -121.253,-43.8896 -127.253,-43.8896 -133.253,-37.8896 -133.253,-31.8896 -133.253,-31.8896 -133.253,62.1104 -133.253,62.1104 -133.253,68.1104 -127.253,74.1104 -121.253,74.1104"/>
<text text-anchor="middle" x="-19.5015" y="-28.6896" font-family="Times,serif" font-size="14.00">Api::V1::ApiController</text>
<polyline fill="none" stroke="black" points="-133.253,-21.8896 94.2505,-21.8896 "/>
<text text-anchor="start" x="-125.253" y="-6.68956" font-family="Times,serif" font-size="14.00">answer</text>
<text text-anchor="start" x="-125.253" y="7.31044" font-family="Times,serif" font-size="14.00">error_render_method</text>
<text text-anchor="start" x="-125.253" y="21.3104" font-family="Times,serif" font-size="14.00">error_render_method_without_output</text>
<polyline fill="none" stroke="black" points="-133.253,28.1104 94.2505,28.1104 "/>
<polyline fill="none" stroke="black" points="-133.253,52.1104 94.2505,52.1104 "/>
<text text-anchor="start" x="-125.253" y="67.3104" font-family="Times,serif" font-size="14.00">_layout</text>
</g>
<!-- Api::V1::FoodController -->
<g id="node3" class="node"><title>Api::V1::FoodController</title>
<path fill="none" stroke="black" d="M101.508,201.978C101.508,201.978 233.508,201.978 233.508,201.978 239.508,201.978 245.508,195.978 245.508,189.978 245.508,189.978 245.508,95.9782 245.508,95.9782 245.508,89.9782 239.508,83.9782 233.508,83.9782 233.508,83.9782 101.508,83.9782 101.508,83.9782 95.5077,83.9782 89.5077,89.9782 89.5077,95.9782 89.5077,95.9782 89.5077,189.978 89.5077,189.978 89.5077,195.978 95.5077,201.978 101.508,201.978"/>
<text text-anchor="middle" x="167.508" y="99.1782" font-family="Times,serif" font-size="14.00">Api::V1::FoodController</text>
<polyline fill="none" stroke="black" points="89.5077,105.978 245.508,105.978 "/>
<text text-anchor="start" x="97.5077" y="121.178" font-family="Times,serif" font-size="14.00">apipie_validations</text>
<text text-anchor="start" x="97.5077" y="135.178" font-family="Times,serif" font-size="14.00">get</text>
<text text-anchor="start" x="97.5077" y="149.178" font-family="Times,serif" font-size="14.00">post</text>
<polyline fill="none" stroke="black" points="89.5077,155.978 245.508,155.978 "/>
<polyline fill="none" stroke="black" points="89.5077,179.978 245.508,179.978 "/>
<text text-anchor="start" x="97.5077" y="195.178" font-family="Times,serif" font-size="14.00">_layout</text>
</g>
<!-- Api::V1::ApiController&#45;&gt;Api::V1::FoodController -->
<g id="edge2" class="edge"><title>Api::V1::ApiController&#45;&gt;Api::V1::FoodController</title>
<path fill="none" stroke="black" d="M66.8868,74.1785C74.3516,79.2826 81.8772,84.4283 89.2719,89.4844"/>
</g>
<!-- Api::V1::PhotosController -->
<g id="node4" class="node"><title>Api::V1::PhotosController</title>
<path fill="none" stroke="black" d="M-90.6706,251.142C-90.6706,251.142 50.6673,251.142 50.6673,251.142 56.6673,251.142 62.6673,245.142 62.6673,239.142 62.6673,239.142 62.6673,145.142 62.6673,145.142 62.6673,139.142 56.6673,133.142 50.6673,133.142 50.6673,133.142 -90.6706,133.142 -90.6706,133.142 -96.6706,133.142 -102.671,139.142 -102.671,145.142 -102.671,145.142 -102.671,239.142 -102.671,239.142 -102.671,245.142 -96.6706,251.142 -90.6706,251.142"/>
<text text-anchor="middle" x="-20.0016" y="148.342" font-family="Times,serif" font-size="14.00">Api::V1::PhotosController</text>
<polyline fill="none" stroke="black" points="-102.671,155.142 62.6673,155.142 "/>
<text text-anchor="start" x="-94.6706" y="170.342" font-family="Times,serif" font-size="14.00">apipie_validations</text>
<text text-anchor="start" x="-94.6706" y="184.342" font-family="Times,serif" font-size="14.00">get</text>
<text text-anchor="start" x="-94.6706" y="198.342" font-family="Times,serif" font-size="14.00">post</text>
<polyline fill="none" stroke="black" points="-102.671,205.142 62.6673,205.142 "/>
<polyline fill="none" stroke="black" points="-102.671,229.142 62.6673,229.142 "/>
<text text-anchor="start" x="-94.6706" y="244.342" font-family="Times,serif" font-size="14.00">_layout</text>
</g>
<!-- Api::V1::ApiController&#45;&gt;Api::V1::PhotosController -->
<g id="edge3" class="edge"><title>Api::V1::ApiController&#45;&gt;Api::V1::PhotosController</title>
<path fill="none" stroke="black" d="M-19.6694,74.5517C-19.7225,93.3355 -19.7811,114.084 -19.8342,132.857"/>
</g>
<!-- Api::V1::PlacesController -->
<g id="node5" class="node"><title>Api::V1::PlacesController</title>
<path fill="none" stroke="black" d="M-275.564,-53.8118C-275.564,-53.8118 -136.585,-53.8118 -136.585,-53.8118 -130.585,-53.8118 -124.585,-59.8118 -124.585,-65.8118 -124.585,-65.8118 -124.585,-159.812 -124.585,-159.812 -124.585,-165.812 -130.585,-171.812 -136.585,-171.812 -136.585,-171.812 -275.564,-171.812 -275.564,-171.812 -281.564,-171.812 -287.564,-165.812 -287.564,-159.812 -287.564,-159.812 -287.564,-65.8118 -287.564,-65.8118 -287.564,-59.8118 -281.564,-53.8118 -275.564,-53.8118"/>
<text text-anchor="middle" x="-206.075" y="-156.612" font-family="Times,serif" font-size="14.00">Api::V1::PlacesController</text>
<polyline fill="none" stroke="black" points="-287.564,-149.812 -124.585,-149.812 "/>
<text text-anchor="start" x="-279.564" y="-134.612" font-family="Times,serif" font-size="14.00">apipie_validations</text>
<text text-anchor="start" x="-279.564" y="-120.612" font-family="Times,serif" font-size="14.00">get</text>
<text text-anchor="start" x="-279.564" y="-106.612" font-family="Times,serif" font-size="14.00">post</text>
<polyline fill="none" stroke="black" points="-287.564,-99.8118 -124.585,-99.8118 "/>
<polyline fill="none" stroke="black" points="-287.564,-75.8118 -124.585,-75.8118 "/>
<text text-anchor="start" x="-279.564" y="-60.6118" font-family="Times,serif" font-size="14.00">_layout</text>
</g>
<!-- Api::V1::ApiController&#45;&gt;Api::V1::PlacesController -->
<g id="edge4" class="edge"><title>Api::V1::ApiController&#45;&gt;Api::V1::PlacesController</title>
<path fill="none" stroke="black" d="M-105.688,-43.9828C-111.895,-48.238 -118.143,-52.5222 -124.323,-56.7592"/>
</g>
<!-- Api::V1::RatingsController -->
<g id="node6" class="node"><title>Api::V1::RatingsController</title>
<path fill="none" stroke="black" d="M94.982,-53.2033C94.982,-53.2033 240.975,-53.2033 240.975,-53.2033 246.975,-53.2033 252.975,-59.2033 252.975,-65.2033 252.975,-65.2033 252.975,-159.203 252.975,-159.203 252.975,-165.203 246.975,-171.203 240.975,-171.203 240.975,-171.203 94.982,-171.203 94.982,-171.203 88.982,-171.203 82.982,-165.203 82.982,-159.203 82.982,-159.203 82.982,-65.2033 82.982,-65.2033 82.982,-59.2033 88.982,-53.2033 94.982,-53.2033"/>
<text text-anchor="middle" x="167.979" y="-156.003" font-family="Times,serif" font-size="14.00">Api::V1::RatingsController</text>
<polyline fill="none" stroke="black" points="82.982,-149.203 252.975,-149.203 "/>
<text text-anchor="start" x="90.982" y="-134.003" font-family="Times,serif" font-size="14.00">apipie_validations</text>
<text text-anchor="start" x="90.982" y="-120.003" font-family="Times,serif" font-size="14.00">delete</text>
<text text-anchor="start" x="90.982" y="-106.003" font-family="Times,serif" font-size="14.00">post</text>
<polyline fill="none" stroke="black" points="82.982,-99.2033 252.975,-99.2033 "/>
<polyline fill="none" stroke="black" points="82.982,-75.2033 252.975,-75.2033 "/>
<text text-anchor="start" x="90.982" y="-60.0033" font-family="Times,serif" font-size="14.00">_layout</text>
</g>
<!-- Api::V1::ApiController&#45;&gt;Api::V1::RatingsController -->
<g id="edge5" class="edge"><title>Api::V1::ApiController&#45;&gt;Api::V1::RatingsController</title>
<path fill="none" stroke="black" d="M67.6523,-44.0738C72.7203,-47.5154 77.8142,-50.9746 82.8742,-54.4107"/>
</g>
<!-- Api::V1::TagsController -->
<g id="node7" class="node"><title>Api::V1::TagsController</title>
<path fill="none" stroke="black" d="M-83.3933,-102.918C-83.3933,-102.918 46.0569,-102.918 46.0569,-102.918 52.0569,-102.918 58.0569,-108.918 58.0569,-114.918 58.0569,-114.918 58.0569,-208.918 58.0569,-208.918 58.0569,-214.918 52.0569,-220.918 46.0569,-220.918 46.0569,-220.918 -83.3933,-220.918 -83.3933,-220.918 -89.3933,-220.918 -95.3933,-214.918 -95.3933,-208.918 -95.3933,-208.918 -95.3933,-114.918 -95.3933,-114.918 -95.3933,-108.918 -89.3933,-102.918 -83.3933,-102.918"/>
<text text-anchor="middle" x="-18.6682" y="-205.718" font-family="Times,serif" font-size="14.00">Api::V1::TagsController</text>
<polyline fill="none" stroke="black" points="-95.3933,-198.918 58.0569,-198.918 "/>
<text text-anchor="start" x="-87.3933" y="-183.718" font-family="Times,serif" font-size="14.00">apipie_validations</text>
<text text-anchor="start" x="-87.3933" y="-169.718" font-family="Times,serif" font-size="14.00">get</text>
<text text-anchor="start" x="-87.3933" y="-155.718" font-family="Times,serif" font-size="14.00">post</text>
<polyline fill="none" stroke="black" points="-95.3933,-148.918 58.0569,-148.918 "/>
<polyline fill="none" stroke="black" points="-95.3933,-124.918 58.0569,-124.918 "/>
<text text-anchor="start" x="-87.3933" y="-109.718" font-family="Times,serif" font-size="14.00">_layout</text>
</g>
<!-- Api::V1::ApiController&#45;&gt;Api::V1::TagsController -->
<g id="edge6" class="edge"><title>Api::V1::ApiController&#45;&gt;Api::V1::TagsController</title>
<path fill="none" stroke="black" d="M-19.2217,-44.3299C-19.1333,-63.1134 -19.0356,-83.8619 -18.9472,-102.634"/>
</g>
<!-- ApplicationController -->
<g id="node8" class="node"><title>ApplicationController</title>
<path fill="none" stroke="black" d="M-264.371,188.452C-264.371,188.452 -148.729,188.452 -148.729,188.452 -142.729,188.452 -136.729,182.452 -136.729,176.452 -136.729,176.452 -136.729,108.452 -136.729,108.452 -136.729,102.452 -142.729,96.4524 -148.729,96.4524 -148.729,96.4524 -264.371,96.4524 -264.371,96.4524 -270.371,96.4524 -276.371,102.452 -276.371,108.452 -276.371,108.452 -276.371,176.452 -276.371,176.452 -276.371,182.452 -270.371,188.452 -264.371,188.452"/>
<text text-anchor="middle" x="-206.55" y="111.652" font-family="Times,serif" font-size="14.00">ApplicationController</text>
<polyline fill="none" stroke="black" points="-276.371,118.452 -136.729,118.452 "/>
<polyline fill="none" stroke="black" points="-276.371,142.452 -136.729,142.452 "/>
<polyline fill="none" stroke="black" points="-276.371,166.452 -136.729,166.452 "/>
<text text-anchor="start" x="-268.371" y="181.652" font-family="Times,serif" font-size="14.00">_layout</text>
</g>
<!-- ApplicationController&#45;&gt;Api::V1::ApiController -->
<g id="edge1" class="edge"><title>ApplicationController&#45;&gt;Api::V1::ApiController</title>
<path fill="none" stroke="black" d="M-138.757,96.299C-128.197,89.11 -117.163,81.598 -106.252,74.1701"/>
</g>
<!-- Apipie::ApipiesController -->
<g id="node9" class="node"><title>Apipie::ApipiesController</title>
<path fill="none" stroke="black" d="M227.51,-217C227.51,-217 366.49,-217 366.49,-217 372.49,-217 378.49,-223 378.49,-229 378.49,-229 378.49,-379 378.49,-379 378.49,-385 372.49,-391 366.49,-391 366.49,-391 227.51,-391 227.51,-391 221.51,-391 215.51,-385 215.51,-379 215.51,-379 215.51,-229 215.51,-229 215.51,-223 221.51,-217 227.51,-217"/>
<text text-anchor="middle" x="297" y="-375.8" font-family="Times,serif" font-size="14.00">Apipie::ApipiesController</text>
<polyline fill="none" stroke="black" points="215.51,-369 378.49,-369 "/>
<text text-anchor="start" x="223.51" y="-353.8" font-family="Times,serif" font-size="14.00">apipie_checksum</text>
<text text-anchor="start" x="223.51" y="-339.8" font-family="Times,serif" font-size="14.00">authenticate</text>
<text text-anchor="start" x="223.51" y="-325.8" font-family="Times,serif" font-size="14.00">index</text>
<polyline fill="none" stroke="black" points="215.51,-319 378.49,-319 "/>
<polyline fill="none" stroke="black" points="215.51,-295 378.49,-295 "/>
<text text-anchor="start" x="223.51" y="-279.8" font-family="Times,serif" font-size="14.00">_layout</text>
<text text-anchor="start" x="223.51" y="-265.8" font-family="Times,serif" font-size="14.00">get_format</text>
<text text-anchor="start" x="223.51" y="-251.8" font-family="Times,serif" font-size="14.00">get_language</text>
<text text-anchor="start" x="223.51" y="-237.8" font-family="Times,serif" font-size="14.00">render_from_cache</text>
<text text-anchor="start" x="223.51" y="-223.8" font-family="Times,serif" font-size="14.00">set_script_name</text>
</g>
</g>
</svg>
