<?xml version="1.0" encoding="UTF-8" standalone="no"?>
<!DOCTYPE svg PUBLIC "-//W3C//DTD SVG 1.1//EN"
 "http://www.w3.org/Graphics/SVG/1.1/DTD/svg11.dtd">
<!-- Generated by graphviz version 2.38.0 (20140413.2041)
 -->
<!-- Title: models_diagram Pages: 1 -->
<svg width="1177pt" height="811pt"
 viewBox="0.00 0.00 1176.60 811.00" xmlns="http://www.w3.org/2000/svg" xmlns:xlink="http://www.w3.org/1999/xlink">
<g id="graph0" class="graph" transform="scale(1 1) rotate(0) translate(4 807)">
<title>models_diagram</title>
<polygon fill="none" stroke="none" points="-4,4 -4,-807 1172.6,-807 1172.6,4 -4,4"/>
<!-- _diagram_info -->
<g id="node1" class="node"><title>_diagram_info</title>
<text text-anchor="start" x="8" y="-788.6" font-family="Times,serif" font-size="13.00">Models diagram</text>
<text text-anchor="start" x="8" y="-775.6" font-family="Times,serif" font-size="13.00">Date: Dec 07 2015 &#45; 20:30</text>
<text text-anchor="start" x="8" y="-762.6" font-family="Times,serif" font-size="13.00">Migration version: 20151119121839</text>
<text text-anchor="start" x="8" y="-749.6" font-family="Times,serif" font-size="13.00">Generated by RailRoady 1.4.1</text>
<text text-anchor="start" x="8" y="-736.6" font-family="Times,serif" font-size="13.00">http://railroady.prestonlee.com</text>
</g>
<!-- ApiAnswer -->
<g id="node2" class="node"><title>ApiAnswer</title>
<polygon fill="none" stroke="black" points="186.939,-600.5 186.939,-644.5 267.484,-644.5 267.484,-600.5 186.939,-600.5"/>
<text text-anchor="middle" x="227.212" y="-629.3" font-family="Times,serif" font-size="14.00">ApiAnswer</text>
<polyline fill="none" stroke="black" points="186.939,-622.5 267.484,-622.5 "/>
<text text-anchor="middle" x="227.212" y="-607.3" font-family="Times,serif" font-size="14.00"> </text>
</g>
<!-- Collection -->
<g id="node3" class="node"><title>Collection</title>
<polygon fill="none" stroke="black" points="285.05,-600.5 285.05,-644.5 359.374,-644.5 359.374,-600.5 285.05,-600.5"/>
<text text-anchor="middle" x="322.212" y="-629.3" font-family="Times,serif" font-size="14.00">Collection</text>
<polyline fill="none" stroke="black" points="285.05,-622.5 359.374,-622.5 "/>
<text text-anchor="middle" x="322.212" y="-607.3" font-family="Times,serif" font-size="14.00"> </text>
</g>
<!-- Food -->
<g id="node4" class="node"><title>Food</title>
<path fill="none" stroke="black" d="M561.349,-337.5C561.349,-337.5 785.074,-337.5 785.074,-337.5 791.074,-337.5 797.074,-343.5 797.074,-349.5 797.074,-349.5 797.074,-453.5 797.074,-453.5 797.074,-459.5 791.074,-465.5 785.074,-465.5 785.074,-465.5 561.349,-465.5 561.349,-465.5 555.349,-465.5 549.349,-459.5 549.349,-453.5 549.349,-453.5 549.349,-349.5 549.349,-349.5 549.349,-343.5 555.349,-337.5 561.349,-337.5"/>
<text text-anchor="middle" x="673.212" y="-450.3" font-family="Times,serif" font-size="14.00">Food</text>
<polyline fill="none" stroke="black" points="549.349,-443.5 797.074,-443.5 "/>
<text text-anchor="start" x="557.349" y="-428.3" font-family="Times,serif" font-size="14.00">id :integer</text>
<text text-anchor="start" x="557.349" y="-414.3" font-family="Times,serif" font-size="14.00">name :character varying</text>
<text text-anchor="start" x="557.349" y="-400.3" font-family="Times,serif" font-size="14.00">price :integer</text>
<text text-anchor="start" x="557.349" y="-386.3" font-family="Times,serif" font-size="14.00">place_id :integer</text>
<text text-anchor="start" x="557.349" y="-372.3" font-family="Times,serif" font-size="14.00">photo_id :integer</text>
<text text-anchor="start" x="557.349" y="-358.3" font-family="Times,serif" font-size="14.00">created_at :timestamp without time zone</text>
<text text-anchor="start" x="557.349" y="-344.3" font-family="Times,serif" font-size="14.00">updated_at :timestamp without time zone</text>
</g>
<!-- FoodTag -->
<g id="node5" class="node"><title>FoodTag</title>
<path fill="none" stroke="black" d="M427.349,-0.5C427.349,-0.5 651.074,-0.5 651.074,-0.5 657.074,-0.5 663.074,-6.5 663.074,-12.5 663.074,-12.5 663.074,-88.5 663.074,-88.5 663.074,-94.5 657.074,-100.5 651.074,-100.5 651.074,-100.5 427.349,-100.5 427.349,-100.5 421.349,-100.5 415.349,-94.5 415.349,-88.5 415.349,-88.5 415.349,-12.5 415.349,-12.5 415.349,-6.5 421.349,-0.5 427.349,-0.5"/>
<text text-anchor="middle" x="539.212" y="-85.3" font-family="Times,serif" font-size="14.00">FoodTag</text>
<polyline fill="none" stroke="black" points="415.349,-78.5 663.074,-78.5 "/>
<text text-anchor="start" x="423.349" y="-63.3" font-family="Times,serif" font-size="14.00">id :integer</text>
<text text-anchor="start" x="423.349" y="-49.3" font-family="Times,serif" font-size="14.00">food_id :integer</text>
<text text-anchor="start" x="423.349" y="-35.3" font-family="Times,serif" font-size="14.00">tag_id :integer</text>
<text text-anchor="start" x="423.349" y="-21.3" font-family="Times,serif" font-size="14.00">created_at :timestamp without time zone</text>
<text text-anchor="start" x="423.349" y="-7.3" font-family="Times,serif" font-size="14.00">updated_at :timestamp without time zone</text>
</g>
<!-- Food&#45;&gt;FoodTag -->
<g id="edge5" class="edge"><title>Food&#45;&gt;FoodTag</title>
<path fill="none" stroke="#2423ed" d="M690.499,-329.416C700.105,-273.608 704.447,-195.78 672.212,-137 666.119,-125.89 657.899,-116.007 648.517,-107.269"/>
<ellipse fill="none" stroke="#2423ed" cx="689.755" cy="-333.549" rx="4.00001" ry="4.00001"/>
<polygon fill="#2423ed" stroke="#2423ed" points="648.299,-107.079 643.721,-97.1145 644.531,-103.792 640.763,-100.506 640.763,-100.506 640.763,-100.506 644.531,-103.792 637.805,-103.897 648.299,-107.079 648.299,-107.079"/>
</g>
<!-- Rating -->
<g id="node8" class="node"><title>Rating</title>
<path fill="none" stroke="black" d="M862.349,-137.5C862.349,-137.5 1086.07,-137.5 1086.07,-137.5 1092.07,-137.5 1098.07,-143.5 1098.07,-149.5 1098.07,-149.5 1098.07,-239.5 1098.07,-239.5 1098.07,-245.5 1092.07,-251.5 1086.07,-251.5 1086.07,-251.5 862.349,-251.5 862.349,-251.5 856.349,-251.5 850.349,-245.5 850.349,-239.5 850.349,-239.5 850.349,-149.5 850.349,-149.5 850.349,-143.5 856.349,-137.5 862.349,-137.5"/>
<text text-anchor="middle" x="974.212" y="-236.3" font-family="Times,serif" font-size="14.00">Rating</text>
<polyline fill="none" stroke="black" points="850.349,-229.5 1098.07,-229.5 "/>
<text text-anchor="start" x="858.349" y="-214.3" font-family="Times,serif" font-size="14.00">id :integer</text>
<text text-anchor="start" x="858.349" y="-200.3" font-family="Times,serif" font-size="14.00">food_id :integer</text>
<text text-anchor="start" x="858.349" y="-186.3" font-family="Times,serif" font-size="14.00">user_id :integer</text>
<text text-anchor="start" x="858.349" y="-172.3" font-family="Times,serif" font-size="14.00">status :integer</text>
<text text-anchor="start" x="858.349" y="-158.3" font-family="Times,serif" font-size="14.00">created_at :timestamp without time zone</text>
<text text-anchor="start" x="858.349" y="-144.3" font-family="Times,serif" font-size="14.00">updated_at :timestamp without time zone</text>
</g>
<!-- Food&#45;&gt;Rating -->
<g id="edge4" class="edge"><title>Food&#45;&gt;Rating</title>
<path fill="none" stroke="#9545d2" d="M748.539,-331.728C766.551,-316.589 786.11,-301.161 805.212,-288 820.926,-277.173 838.031,-266.577 855.125,-256.647"/>
<ellipse fill="none" stroke="#9545d2" cx="745.029" cy="-334.702" rx="4.00002" ry="4.00002"/>
<polygon fill="#9545d2" stroke="#9545d2" points="855.384,-256.499 866.297,-255.42 859.72,-254.008 864.055,-251.518 864.055,-251.518 864.055,-251.518 859.72,-254.008 861.814,-247.616 855.384,-256.499 855.384,-256.499"/>
</g>
<!-- Tag -->
<g id="node9" class="node"><title>Tag</title>
<path fill="none" stroke="black" d="M427.349,-151.5C427.349,-151.5 651.074,-151.5 651.074,-151.5 657.074,-151.5 663.074,-157.5 663.074,-163.5 663.074,-163.5 663.074,-225.5 663.074,-225.5 663.074,-231.5 657.074,-237.5 651.074,-237.5 651.074,-237.5 427.349,-237.5 427.349,-237.5 421.349,-237.5 415.349,-231.5 415.349,-225.5 415.349,-225.5 415.349,-163.5 415.349,-163.5 415.349,-157.5 421.349,-151.5 427.349,-151.5"/>
<text text-anchor="middle" x="539.212" y="-222.3" font-family="Times,serif" font-size="14.00">Tag</text>
<polyline fill="none" stroke="black" points="415.349,-215.5 663.074,-215.5 "/>
<text text-anchor="start" x="423.349" y="-200.3" font-family="Times,serif" font-size="14.00">id :integer</text>
<text text-anchor="start" x="423.349" y="-186.3" font-family="Times,serif" font-size="14.00">name :character varying</text>
<text text-anchor="start" x="423.349" y="-172.3" font-family="Times,serif" font-size="14.00">created_at :timestamp without time zone</text>
<text text-anchor="start" x="423.349" y="-158.3" font-family="Times,serif" font-size="14.00">updated_at :timestamp without time zone</text>
</g>
<!-- Food&#45;&gt;Tag -->
<g id="edge3" class="edge"><title>Food&#45;&gt;Tag</title>
<path fill="none" stroke="#607bfa" d="M626.379,-328.853C608.585,-301.631 588.698,-271.207 572.417,-246.3"/>
<polygon fill="#607bfa" stroke="#607bfa" points="626.442,-328.95 628.147,-339.783 629.178,-333.135 631.914,-337.321 631.914,-337.321 631.914,-337.321 629.178,-333.135 635.681,-334.858 626.442,-328.95 626.442,-328.95"/>
<polygon fill="#607bfa" stroke="#607bfa" points="572.29,-246.105 570.585,-235.272 569.554,-241.92 566.819,-237.734 566.819,-237.734 566.819,-237.734 569.554,-241.92 563.052,-240.197 572.29,-246.105 572.29,-246.105"/>
</g>
<!-- Photo -->
<g id="node6" class="node"><title>Photo</title>
<path fill="none" stroke="black" d="M499.905,-551.5C499.905,-551.5 762.519,-551.5 762.519,-551.5 768.519,-551.5 774.519,-557.5 774.519,-563.5 774.519,-563.5 774.519,-681.5 774.519,-681.5 774.519,-687.5 768.519,-693.5 762.519,-693.5 762.519,-693.5 499.905,-693.5 499.905,-693.5 493.905,-693.5 487.905,-687.5 487.905,-681.5 487.905,-681.5 487.905,-563.5 487.905,-563.5 487.905,-557.5 493.905,-551.5 499.905,-551.5"/>
<text text-anchor="middle" x="631.212" y="-678.3" font-family="Times,serif" font-size="14.00">Photo</text>
<polyline fill="none" stroke="black" points="487.905,-671.5 774.519,-671.5 "/>
<text text-anchor="start" x="495.905" y="-656.3" font-family="Times,serif" font-size="14.00">id :integer</text>
<text text-anchor="start" x="495.905" y="-642.3" font-family="Times,serif" font-size="14.00">photo_1x :character varying</text>
<text text-anchor="start" x="495.905" y="-628.3" font-family="Times,serif" font-size="14.00">created_at :timestamp without time zone</text>
<text text-anchor="start" x="495.905" y="-614.3" font-family="Times,serif" font-size="14.00">updated_at :timestamp without time zone</text>
<text text-anchor="start" x="495.905" y="-600.3" font-family="Times,serif" font-size="14.00">photo_file_name :character varying</text>
<text text-anchor="start" x="495.905" y="-586.3" font-family="Times,serif" font-size="14.00">photo_content_type :character varying</text>
<text text-anchor="start" x="495.905" y="-572.3" font-family="Times,serif" font-size="14.00">photo_file_size :integer</text>
<text text-anchor="start" x="495.905" y="-558.3" font-family="Times,serif" font-size="14.00">photo_updated_at :timestamp without time zone</text>
</g>
<!-- Photo&#45;&gt;Food -->
<g id="edge8" class="edge"><title>Photo&#45;&gt;Food</title>
<path fill="none" stroke="#d6ead4" d="M646.24,-543.138C650.585,-520.483 655.302,-495.888 659.558,-473.695"/>
<ellipse fill="none" stroke="#d6ead4" cx="645.427" cy="-547.375" rx="4.00001" ry="4.00001"/>
<ellipse fill="#d6ead4" stroke="#d6ead4" cx="660.35" cy="-469.563" rx="4.00001" ry="4.00001"/>
</g>
<!-- Place -->
<g id="node7" class="node"><title>Place</title>
<path fill="none" stroke="black" d="M804.349,-565.5C804.349,-565.5 1028.07,-565.5 1028.07,-565.5 1034.07,-565.5 1040.07,-571.5 1040.07,-577.5 1040.07,-577.5 1040.07,-667.5 1040.07,-667.5 1040.07,-673.5 1034.07,-679.5 1028.07,-679.5 1028.07,-679.5 804.349,-679.5 804.349,-679.5 798.349,-679.5 792.349,-673.5 792.349,-667.5 792.349,-667.5 792.349,-577.5 792.349,-577.5 792.349,-571.5 798.349,-565.5 804.349,-565.5"/>
<text text-anchor="middle" x="916.212" y="-664.3" font-family="Times,serif" font-size="14.00">Place</text>
<polyline fill="none" stroke="black" points="792.349,-657.5 1040.07,-657.5 "/>
<text text-anchor="start" x="800.349" y="-642.3" font-family="Times,serif" font-size="14.00">id :integer</text>
<text text-anchor="start" x="800.349" y="-628.3" font-family="Times,serif" font-size="14.00">name :character varying</text>
<text text-anchor="start" x="800.349" y="-614.3" font-family="Times,serif" font-size="14.00">address :character varying</text>
<text text-anchor="start" x="800.349" y="-600.3" font-family="Times,serif" font-size="14.00">location :point</text>
<text text-anchor="start" x="800.349" y="-586.3" font-family="Times,serif" font-size="14.00">created_at :timestamp without time zone</text>
<text text-anchor="start" x="800.349" y="-572.3" font-family="Times,serif" font-size="14.00">updated_at :timestamp without time zone</text>
</g>
<!-- Tag&#45;&gt;FoodTag -->
<g id="edge12" class="edge"><title>Tag&#45;&gt;FoodTag</title>
<path fill="none" stroke="#cb67da" d="M539.212,-143.263C539.212,-132.75 539.212,-121.57 539.212,-110.764"/>
<ellipse fill="none" stroke="#cb67da" cx="539.212" cy="-147.28" rx="4" ry="4"/>
<polygon fill="#cb67da" stroke="#cb67da" points="539.212,-110.551 543.712,-100.551 539.212,-105.551 539.212,-100.551 539.212,-100.551 539.212,-100.551 539.212,-105.551 534.712,-100.551 539.212,-110.551 539.212,-110.551"/>
</g>
<!-- User -->
<g id="node10" class="node"><title>User</title>
<path fill="none" stroke="black" d="M826.577,-288.5C826.577,-288.5 1121.85,-288.5 1121.85,-288.5 1127.85,-288.5 1133.85,-294.5 1133.85,-300.5 1133.85,-300.5 1133.85,-502.5 1133.85,-502.5 1133.85,-508.5 1127.85,-514.5 1121.85,-514.5 1121.85,-514.5 826.577,-514.5 826.577,-514.5 820.577,-514.5 814.577,-508.5 814.577,-502.5 814.577,-502.5 814.577,-300.5 814.577,-300.5 814.577,-294.5 820.577,-288.5 826.577,-288.5"/>
<text text-anchor="middle" x="974.212" y="-499.3" font-family="Times,serif" font-size="14.00">User</text>
<polyline fill="none" stroke="black" points="814.577,-492.5 1133.85,-492.5 "/>
<text text-anchor="start" x="822.577" y="-477.3" font-family="Times,serif" font-size="14.00">id :integer</text>
<text text-anchor="start" x="822.577" y="-463.3" font-family="Times,serif" font-size="14.00">device_hash :character varying</text>
<text text-anchor="start" x="822.577" y="-449.3" font-family="Times,serif" font-size="14.00">created_at :timestamp without time zone</text>
<text text-anchor="start" x="822.577" y="-435.3" font-family="Times,serif" font-size="14.00">updated_at :timestamp without time zone</text>
<text text-anchor="start" x="822.577" y="-421.3" font-family="Times,serif" font-size="14.00">email :character varying</text>
<text text-anchor="start" x="822.577" y="-407.3" font-family="Times,serif" font-size="14.00">encrypted_password :character varying</text>
<text text-anchor="start" x="822.577" y="-393.3" font-family="Times,serif" font-size="14.00">reset_password_token :character varying</text>
<text text-anchor="start" x="822.577" y="-379.3" font-family="Times,serif" font-size="14.00">reset_password_sent_at :timestamp without time zone</text>
<text text-anchor="start" x="822.577" y="-365.3" font-family="Times,serif" font-size="14.00">remember_created_at :timestamp without time zone</text>
<text text-anchor="start" x="822.577" y="-351.3" font-family="Times,serif" font-size="14.00">sign_in_count :integer</text>
<text text-anchor="start" x="822.577" y="-337.3" font-family="Times,serif" font-size="14.00">current_sign_in_at :timestamp without time zone</text>
<text text-anchor="start" x="822.577" y="-323.3" font-family="Times,serif" font-size="14.00">last_sign_in_at :timestamp without time zone</text>
<text text-anchor="start" x="822.577" y="-309.3" font-family="Times,serif" font-size="14.00">current_sign_in_ip :inet</text>
<text text-anchor="start" x="822.577" y="-295.3" font-family="Times,serif" font-size="14.00">last_sign_in_ip :inet</text>
</g>
<!-- User&#45;&gt;Rating -->
<g id="edge14" class="edge"><title>User&#45;&gt;Rating</title>
<path fill="none" stroke="#1077fb" d="M974.212,-280.392C974.212,-274.026 974.212,-267.754 974.212,-261.677"/>
<ellipse fill="none" stroke="#1077fb" cx="974.212" cy="-284.403" rx="4" ry="4"/>
<polygon fill="#1077fb" stroke="#1077fb" points="974.212,-261.653 978.712,-251.653 974.212,-256.653 974.212,-251.653 974.212,-251.653 974.212,-251.653 974.212,-256.653 969.712,-251.653 974.212,-261.653 974.212,-261.653"/>
</g>
<!-- OpenStruct -->
<g id="node11" class="node"><title>OpenStruct</title>
<ellipse fill="none" stroke="black" cx="275.212" cy="-766.5" rx="50.2723" ry="18"/>
<text text-anchor="middle" x="275.212" y="-762.3" font-family="Times,serif" font-size="14.00">OpenStruct</text>
</g>
<!-- OpenStruct&#45;&gt;ApiAnswer -->
<g id="edge1" class="edge"><title>OpenStruct&#45;&gt;ApiAnswer</title>
<path fill="none" stroke="black" d="M269.422,-748.371C260.645,-722.406 243.985,-673.122 234.43,-644.855"/>
</g>
<!-- OpenStruct&#45;&gt;Collection -->
<g id="edge2" class="edge"><title>OpenStruct&#45;&gt;Collection</title>
<path fill="none" stroke="black" d="M280.881,-748.371C289.475,-722.406 305.788,-673.122 315.144,-644.855"/>
</g>
<!-- ActiveRecord::Base -->
<g id="node12" class="node"><title>ActiveRecord::Base</title>
<ellipse fill="none" stroke="black" cx="916.212" cy="-766.5" rx="81.1422" ry="18"/>
<text text-anchor="middle" x="916.212" y="-762.3" font-family="Times,serif" font-size="14.00">ActiveRecord::Base</text>
</g>
<!-- ActiveRecord::Base&#45;&gt;Food -->
<g id="edge6" class="edge"><title>ActiveRecord::Base&#45;&gt;Food</title>
<path fill="none" stroke="black" d="M967.099,-752.332C996.651,-741.784 1031.46,-723.702 1049.21,-694 1081.82,-639.447 1090.74,-599.109 1049.21,-551 1013.4,-509.512 855.119,-537.656 805.212,-515 779.028,-503.113 754.01,-484.439 732.932,-465.696"/>
</g>
<!-- ActiveRecord::Base&#45;&gt;FoodTag -->
<g id="edge7" class="edge"><title>ActiveRecord::Base&#45;&gt;FoodTag</title>
<path fill="none" stroke="black" d="M834.913,-765.681C709.683,-764.065 478.44,-752.933 425.212,-694 342.199,-602.089 346.864,-245.704 406.212,-137 413.841,-123.026 424.84,-110.995 437.29,-100.744"/>
</g>
<!-- ActiveRecord::Base&#45;&gt;Photo -->
<g id="edge9" class="edge"><title>ActiveRecord::Base&#45;&gt;Photo</title>
<path fill="none" stroke="black" d="M884.623,-749.761C856.797,-735.897 814.204,-714.675 771.833,-693.564"/>
</g>
<!-- ActiveRecord::Base&#45;&gt;Place -->
<g id="edge10" class="edge"><title>ActiveRecord::Base&#45;&gt;Place</title>
<path fill="none" stroke="black" d="M916.212,-748.371C916.212,-731.332 916.212,-704.249 916.212,-679.655"/>
</g>
<!-- ActiveRecord::Base&#45;&gt;Rating -->
<g id="edge11" class="edge"><title>ActiveRecord::Base&#45;&gt;Rating</title>
<path fill="none" stroke="black" d="M984.553,-756.519C1025.66,-747.536 1075.75,-729.629 1106.21,-694 1159,-632.253 1134.95,-595.816 1143.21,-515 1153.48,-414.635 1194.65,-374.792 1143.21,-288 1132.3,-269.585 1116.28,-254.596 1098.39,-242.471"/>
</g>
<!-- ActiveRecord::Base&#45;&gt;Tag -->
<g id="edge13" class="edge"><title>ActiveRecord::Base&#45;&gt;Tag</title>
<path fill="none" stroke="black" d="M835.381,-764.278C721.858,-760.655 524.012,-746.726 479.212,-694 366.326,-561.143 466.445,-331.615 515.649,-237.554"/>
</g>
<!-- ActiveRecord::Base&#45;&gt;User -->
<g id="edge15" class="edge"><title>ActiveRecord::Base&#45;&gt;User</title>
<path fill="none" stroke="black" d="M980.55,-755.46C1017,-746.119 1059.7,-728.207 1082.21,-694 1117.15,-640.909 1101.87,-611.44 1082.21,-551 1078.22,-538.722 1072.79,-526.612 1066.47,-514.925"/>
</g>
</g>
</svg>
