<?xml version="1.0" encoding="UTF-8" standalone="no"?>
<!DOCTYPE svg PUBLIC "-//W3C//DTD SVG 1.1//EN"
 "http://www.w3.org/Graphics/SVG/1.1/DTD/svg11.dtd">
<!-- Generated by graphviz version 2.38.0 (20140413.2041)
 -->
<!-- Title: models_diagram Pages: 1 -->
<svg width="688pt" height="369pt"
 viewBox="0.00 0.00 687.55 369.00" xmlns="http://www.w3.org/2000/svg" xmlns:xlink="http://www.w3.org/1999/xlink">
<g id="graph0" class="graph" transform="scale(1 1) rotate(0) translate(4 365)">
<title>models_diagram</title>
<polygon fill="none" stroke="none" points="-4,4 -4,-365 683.546,-365 683.546,4 -4,4"/>
<!-- _diagram_info -->
<g id="node1" class="node"><title>_diagram_info</title>
<text text-anchor="start" x="8" y="-346.6" font-family="Times,serif" font-size="13.00">Models diagram</text>
<text text-anchor="start" x="8" y="-333.6" font-family="Times,serif" font-size="13.00">Date: Dec 07 2015 &#45; 20:30</text>
<text text-anchor="start" x="8" y="-320.6" font-family="Times,serif" font-size="13.00">Migration version: 20151119121839</text>
<text text-anchor="start" x="8" y="-307.6" font-family="Times,serif" font-size="13.00">Generated by RailRoady 1.4.1</text>
<text text-anchor="start" x="8" y="-294.6" font-family="Times,serif" font-size="13.00">http://railroady.prestonlee.com</text>
</g>
<!-- ApiAnswer -->
<g id="node2" class="node"><title>ApiAnswer</title>
<polygon fill="none" stroke="black" points="267.258,-252 187.165,-252 187.165,-216 267.258,-216 267.258,-252"/>
<text text-anchor="middle" x="227.212" y="-229.8" font-family="Times,serif" font-size="14.00">ApiAnswer</text>
</g>
<!-- Collection -->
<g id="node3" class="node"><title>Collection</title>
<polygon fill="none" stroke="black" points="359.537,-252 284.887,-252 284.887,-216 359.537,-216 359.537,-252"/>
<text text-anchor="middle" x="322.212" y="-229.8" font-family="Times,serif" font-size="14.00">Collection</text>
</g>
<!-- Food -->
<g id="node4" class="node"><title>Food</title>
<ellipse fill="none" stroke="black" cx="497.212" cy="-162" rx="28.0822" ry="18"/>
<text text-anchor="middle" x="497.212" y="-157.8" font-family="Times,serif" font-size="14.00">Food</text>
</g>
<!-- FoodTag -->
<g id="node5" class="node"><title>FoodTag</title>
<ellipse fill="none" stroke="black" cx="442.212" cy="-18" rx="41.3435" ry="18"/>
<text text-anchor="middle" x="442.212" y="-13.8" font-family="Times,serif" font-size="14.00">FoodTag</text>
</g>
<!-- Food&#45;&gt;FoodTag -->
<g id="edge5" class="edge"><title>Food&#45;&gt;FoodTag</title>
<path fill="none" stroke="#713a94" d="M494.446,-135.635C491.83,-117.384 486.955,-92.4793 478.212,-72 473.953,-62.0257 467.717,-51.9612 461.627,-43.3219"/>
<ellipse fill="none" stroke="#713a94" cx="495.03" cy="-140.046" rx="4.00001" ry="4.00001"/>
<polygon fill="#713a94" stroke="#713a94" points="461.588,-43.2699 459.289,-32.5478 458.626,-39.2419 455.664,-35.2139 455.664,-35.2139 455.664,-35.2139 458.626,-39.2419 452.038,-37.88 461.588,-43.2699 461.588,-43.2699"/>
</g>
<!-- Rating -->
<g id="node8" class="node"><title>Rating</title>
<ellipse fill="none" stroke="black" cx="640.212" cy="-90" rx="33.877" ry="18"/>
<text text-anchor="middle" x="640.212" y="-85.8" font-family="Times,serif" font-size="14.00">Rating</text>
</g>
<!-- Food&#45;&gt;Rating -->
<g id="edge4" class="edge"><title>Food&#45;&gt;Rating</title>
<path fill="none" stroke="#42b6ec" d="M526.365,-146.729C549.648,-135.332 582.298,-119.349 606.666,-107.421"/>
<ellipse fill="none" stroke="#42b6ec" cx="522.523" cy="-148.61" rx="4.00002" ry="4.00002"/>
<polygon fill="#42b6ec" stroke="#42b6ec" points="606.909,-107.302 617.869,-106.947 611.4,-105.104 615.89,-102.906 615.89,-102.906 615.89,-102.906 611.4,-105.104 613.912,-98.8638 606.909,-107.302 606.909,-107.302"/>
</g>
<!-- Tag -->
<g id="node9" class="node"><title>Tag</title>
<ellipse fill="none" stroke="black" cx="442.212" cy="-90" rx="27" ry="18"/>
<text text-anchor="middle" x="442.212" y="-85.8" font-family="Times,serif" font-size="14.00">Tag</text>
</g>
<!-- Food&#45;&gt;Tag -->
<g id="edge3" class="edge"><title>Food&#45;&gt;Tag</title>
<path fill="none" stroke="#3ed815" d="M478.621,-137.339C472.873,-130.023 466.542,-121.966 460.794,-114.65"/>
<polygon fill="#3ed815" stroke="#3ed815" points="478.827,-137.602 481.467,-148.245 481.916,-141.533 485.005,-145.465 485.005,-145.465 485.005,-145.465 481.916,-141.533 488.544,-142.685 478.827,-137.602 478.827,-137.602"/>
<polygon fill="#3ed815" stroke="#3ed815" points="460.562,-114.355 457.922,-103.712 457.473,-110.423 454.384,-106.492 454.384,-106.492 454.384,-106.492 457.473,-110.423 450.845,-109.272 460.562,-114.355 460.562,-114.355"/>
</g>
<!-- Photo -->
<g id="node6" class="node"><title>Photo</title>
<ellipse fill="none" stroke="black" cx="484.212" cy="-234" rx="30.9967" ry="18"/>
<text text-anchor="middle" x="484.212" y="-229.8" font-family="Times,serif" font-size="14.00">Photo</text>
</g>
<!-- Photo&#45;&gt;Food -->
<g id="edge8" class="edge"><title>Photo&#45;&gt;Food</title>
<path fill="none" stroke="#3cae2f" d="M488.857,-207.987C490.029,-201.676 491.289,-194.892 492.466,-188.554"/>
<ellipse fill="none" stroke="#3cae2f" cx="488.089" cy="-212.122" rx="4.00001" ry="4.00001"/>
<ellipse fill="#3cae2f" stroke="#3cae2f" cx="493.273" cy="-184.208" rx="4.00001" ry="4.00001"/>
</g>
<!-- Place -->
<g id="node7" class="node"><title>Place</title>
<ellipse fill="none" stroke="black" cx="562.212" cy="-234" rx="29.0172" ry="18"/>
<text text-anchor="middle" x="562.212" y="-229.8" font-family="Times,serif" font-size="14.00">Place</text>
</g>
<!-- Tag&#45;&gt;FoodTag -->
<g id="edge12" class="edge"><title>Tag&#45;&gt;FoodTag</title>
<path fill="none" stroke="#33bb26" d="M442.212,-63.6398C442.212,-58.0629 442.212,-52.1319 442.212,-46.4761"/>
<ellipse fill="none" stroke="#33bb26" cx="442.212" cy="-67.6966" rx="4" ry="4"/>
<polygon fill="#33bb26" stroke="#33bb26" points="442.212,-46.1043 446.712,-36.1043 442.212,-41.1043 442.212,-36.1043 442.212,-36.1043 442.212,-36.1043 442.212,-41.1043 437.712,-36.1044 442.212,-46.1043 442.212,-46.1043"/>
</g>
<!-- User -->
<g id="node10" class="node"><title>User</title>
<ellipse fill="none" stroke="black" cx="640.212" cy="-162" rx="27" ry="18"/>
<text text-anchor="middle" x="640.212" y="-157.8" font-family="Times,serif" font-size="14.00">User</text>
</g>
<!-- User&#45;&gt;Rating -->
<g id="edge14" class="edge"><title>User&#45;&gt;Rating</title>
<path fill="none" stroke="#aeb5b8" d="M640.212,-135.64C640.212,-130.063 640.212,-124.132 640.212,-118.476"/>
<ellipse fill="none" stroke="#aeb5b8" cx="640.212" cy="-139.697" rx="4" ry="4"/>
<polygon fill="#aeb5b8" stroke="#aeb5b8" points="640.212,-118.104 644.712,-108.104 640.212,-113.104 640.212,-108.104 640.212,-108.104 640.212,-108.104 640.212,-113.104 635.712,-108.104 640.212,-118.104 640.212,-118.104"/>
</g>
<!-- OpenStruct -->
<g id="node11" class="node"><title>OpenStruct</title>
<ellipse fill="none" stroke="black" cx="275.212" cy="-324.5" rx="50.2723" ry="18"/>
<text text-anchor="middle" x="275.212" y="-320.3" font-family="Times,serif" font-size="14.00">OpenStruct</text>
</g>
<!-- OpenStruct&#45;&gt;ApiAnswer -->
<g id="edge1" class="edge"><title>OpenStruct&#45;&gt;ApiAnswer</title>
<path fill="none" stroke="black" d="M265.957,-306.436C257.457,-290.765 244.929,-267.666 236.438,-252.011"/>
</g>
<!-- OpenStruct&#45;&gt;Collection -->
<g id="edge2" class="edge"><title>OpenStruct&#45;&gt;Collection</title>
<path fill="none" stroke="black" d="M284.274,-306.436C292.596,-290.765 304.864,-267.666 313.177,-252.011"/>
</g>
<!-- ActiveRecord::Base -->
<g id="node12" class="node"><title>ActiveRecord::Base</title>
<ellipse fill="none" stroke="black" cx="562.212" cy="-324.5" rx="81.1422" ry="18"/>
<text text-anchor="middle" x="562.212" y="-320.3" font-family="Times,serif" font-size="14.00">ActiveRecord::Base</text>
</g>
<!-- ActiveRecord::Base&#45;&gt;Food -->
<g id="edge6" class="edge"><title>ActiveRecord::Base&#45;&gt;Food</title>
<path fill="none" stroke="black" d="M576.932,-306.528C594.148,-284.499 618.15,-245.403 600.212,-216 583.664,-188.875 548.307,-175.043 523.663,-168.429"/>
</g>
<!-- ActiveRecord::Base&#45;&gt;FoodTag -->
<g id="edge7" class="edge"><title>ActiveRecord::Base&#45;&gt;FoodTag</title>
<path fill="none" stroke="black" d="M513.831,-309.909C484.387,-299.075 448.63,-280.837 428.212,-252 381.637,-186.224 382.523,-149.035 406.212,-72 410.397,-58.3911 419.397,-45.1411 427.35,-35.2933"/>
</g>
<!-- ActiveRecord::Base&#45;&gt;Photo -->
<g id="edge9" class="edge"><title>ActiveRecord::Base&#45;&gt;Photo</title>
<path fill="none" stroke="black" d="M547.172,-306.436C532.829,-290.162 511.426,-265.878 497.643,-250.239"/>
</g>
<!-- ActiveRecord::Base&#45;&gt;Place -->
<g id="edge10" class="edge"><title>ActiveRecord::Base&#45;&gt;Place</title>
<path fill="none" stroke="black" d="M562.212,-306.436C562.212,-290.765 562.212,-267.666 562.212,-252.011"/>
</g>
<!-- ActiveRecord::Base&#45;&gt;Rating -->
<g id="edge11" class="edge"><title>ActiveRecord::Base&#45;&gt;Rating</title>
<path fill="none" stroke="black" d="M583.637,-306.943C612.619,-282.831 662.298,-234.9 676.212,-180 680.142,-164.49 680.914,-159.293 676.212,-144 671.896,-129.966 662.46,-116.313 654.331,-106.38"/>
</g>
<!-- ActiveRecord::Base&#45;&gt;Tag -->
<g id="edge13" class="edge"><title>ActiveRecord::Base&#45;&gt;Tag</title>
<path fill="none" stroke="black" d="M518.209,-309.249C491.723,-298.151 460.139,-279.867 444.212,-252 417.719,-205.645 429.645,-138.839 437.409,-107.902"/>
</g>
<!-- ActiveRecord::Base&#45;&gt;User -->
<g id="edge15" class="edge"><title>ActiveRecord::Base&#45;&gt;User</title>
<path fill="none" stroke="black" d="M578.391,-306.621C590.7,-292.912 607.178,-272.546 617.212,-252 628.697,-228.482 634.906,-198.571 637.885,-180.109"/>
</g>
</g>
</svg>
